<?xml version="1.0" encoding="utf-8"?>
<!-- Generator: Adobe Illustrator 16.0.0, SVG Export Plug-In . SVG Version: 6.00 Build 0)  -->
<!DOCTYPE svg PUBLIC "-//W3C//DTD SVG 1.1//EN" "http://www.w3.org/Graphics/SVG/1.1/DTD/svg11.dtd">
<svg version="1.1" id="Layer_1" xmlns="http://www.w3.org/2000/svg" xmlns:xlink="http://www.w3.org/1999/xlink" x="0px" y="0px"
	 width="1000px" height="435.668px" viewBox="0 0 1000 435.668" enable-background="new 0 0 1000 435.668" xml:space="preserve">
<path d="M988.537,409.801l-7.314,20.35l-7.381-20.318l-4.227-0.02v25.171h3.264l0.059-19.008l6.484,18.986l3.66,0.075l6.691-19.465
	l0.1,19.41h3.264l0.004-25.169L988.537,409.801z M946.761,413.293l8.47-0.008l0.005,21.697h3.263l0.006-21.884l8.492-0.028v-3.248
	l-20.264,0.008L946.761,413.293z"/>
<path d="M990,237.49v47.488h-90.353l-0.159-0.007c-0.396-0.02-0.835-0.037-1.288-0.037c-6.463,0-9.623,3.537-10.918,5.625
	c-1.438,2.305-4.105,8.396,2.181,15.16c0.059,0.063,0.118,0.126,0.171,0.185l0.086,0.098l0.088,0.095
	c2.53,2.727,5.112,5.462,7.61,8.106c6.322,6.697,12.86,13.622,18.807,20.681c5.979,7.094,9.969,15.329,11.54,23.813
	c2.001,10.821,1.478,21.352-1.518,30.458c-3.151,9.599-8.95,18.237-16.328,24.323c-9.377,7.735-21.785,12.171-34.081,12.171
	c-11.669-0.013-23.329-0.018-34.997-0.018c-11.275,0-22.552,0.004-33.827,0.008c-11.273,0.005-22.547,0.009-33.819,0.009
	c-24.326,0-43.111-0.02-60.801-0.063c-13.245-1.627-23.314-5.775-29.932-12.331c-12.339-12.227-43.531-43.018-43.845-43.327
	l-17.025-16.805v23.922v48.627h-62.43l-0.001-188.179H684.65c5.396,0,12.785,0,16.398,0.63c12.878,2.258,24.38,7.378,33.262,14.807
	c8.53,7.139,14.75,16.469,17.512,26.274c1.304,4.623,1.924,9.916,2.011,17.162c0.12,9.972-2.368,19.51-7.198,27.585
	c-5.758,9.634-15.885,16.547-25.031,22.038l-0.367,0.221l-0.347,0.251c-5.13,3.711-6.75,9.957-3.942,15.187
	c2.093,3.902,7.552,10.45,20.594,10.45H839.23c7.896,0,12.216-4.644,13.624-8.988c1.003-3.091,1.262-7.793-3.202-12.638l-0.102-0.11
	l-0.278-0.357l-0.428-0.43c-6.239-6.261-12.31-12.687-18.043-19.098l-0.315-0.354c-2.638-2.948-5.128-5.733-6.952-8.64
	c-7.595-12.093-11.209-25.263-10.176-37.081c0.905-10.342,5.964-20.944,14.247-29.858c4.77-5.137,11.562-9.442,20.188-12.799
	c7.244-2.821,14.476-4.252,21.494-4.252H990 M622.506,322.786h9.999h38.092h0.121l0.121-0.003c0.271-0.007,0.544-0.009,0.818-0.009
	c0.494,0,0.992,0.007,1.492,0.014c0.596,0.008,1.194,0.016,1.793,0.016c3.957,0,8.593-0.35,13.108-2.894
	c8.638-4.408,13.398-14.794,11.288-24.553c-1.686-11.919-13.323-19.016-23.842-19.016h-42.995h-10.001l0.001,10.001l0.003,26.444
	L622.506,322.786 M1000,227.49c0,0-112.325,0-130.713,0c-8.623,0-17.135,1.822-25.123,4.934c-8.863,3.448-17.356,8.28-23.887,15.313
	c-9.131,9.826-15.705,22.354-16.881,35.791c-1.33,15.221,3.604,30.431,11.669,43.271c2.357,3.756,5.335,7.044,8.281,10.34
	c5.957,6.662,12.104,13.16,18.414,19.492c0.765,0.98,2.082,1.85,1.582,3.391c-0.558,1.72-2.54,2.074-4.112,2.074
	c-22.49,0-89.158,0-101.689,0c-4.219,0-9.496-0.916-11.781-5.177c-0.504-0.938,0.281-1.845,0.991-2.358
	c10.94-6.568,21.794-14.315,28.468-25.48c5.89-9.848,8.752-21.387,8.613-32.837c-0.079-6.636-0.574-13.335-2.385-19.755
	c-3.449-12.243-11.011-23.105-20.72-31.229c-10.794-9.028-24.181-14.573-37.952-16.987c-4.463-0.778-11.873-0.78-18.125-0.78
	c-8.67,0-135.489,0-135.489,0l0.001,208.179h82.43v-58.627c0,0,31.356,30.952,43.831,43.313c9.614,9.524,23.216,13.69,36.362,15.227
	c20.468,0.051,40.941,0.064,61.409,0.064c22.548,0,45.098-0.017,67.646-0.017c11.664,0,23.321,0.005,34.985,0.018
	c0.016,0,0.033,0,0.05,0c14.596,0,29.138-5.161,40.406-14.456c9.092-7.501,15.792-17.729,19.466-28.919
	c3.744-11.385,4.016-23.686,1.85-35.396c-1.942-10.489-6.871-20.304-13.727-28.438c-8.498-10.088-17.767-19.484-26.734-29.146
	c-0.846-0.96-2.211-2.095-1.371-3.44c0.483-0.779,1.507-0.919,2.435-0.919c0.519,0,1.008,0.044,1.356,0.044
	c3.523,0,100.443,0,100.443,0V227.49L1000,227.49z M632.505,312.786l-0.003-26.444c0,0,29.408,0,42.995,0
	c6.238,0,13.266,4.094,13.984,10.771c1.322,5.311-1.131,11.545-6.16,13.98c-2.548,1.504-5.465,1.71-8.379,1.71
	c-1.103,0-2.204-0.029-3.285-0.029c-0.356,0-0.71,0.003-1.061,0.012C658.394,312.786,632.505,312.786,632.505,312.786
	L632.505,312.786z"/>
<path d="M459.993,237.49l57.95,188.178h-54.473l-7.093-23.021l-2.174-7.056h-7.383h-70.764h-7.387l-2.171,7.061l-7.079,23.016
	H302.52l56.443-188.178H459.993 M379.921,359.023h13.538h35.93h13.545l-3.988-12.944l-17.98-58.354l-9.565-31.043l-9.55,31.047
	l-17.949,58.355L379.921,359.023 M467.377,227.49H351.521L289.08,435.668h77.728l9.25-30.076h70.764l9.267,30.076h75.398
	L467.377,227.49L467.377,227.49z M393.459,349.023l17.949-58.354l17.98,58.354H393.459L393.459,349.023z"/>
<path d="M195.586,237.49l15.163,49.357l9.56,31.117l9.559-31.117l15.161-49.355l58.163-0.002l-57.168,188.178h-55.886
	l-22.322-72.646l-9.559-31.108l-9.559,31.108l-22.322,72.646H71.39L13.536,237.492h63.106l14.193,49.191l9.608,33.3l9.608-33.3
	l14.193-49.191L195.586,237.49 M316.275,227.49l-78.636,0.002l-17.331,56.419l-17.333-56.421l-86.253,0.002l-16.278,56.419
	l-16.279-56.419H0l64.002,208.176h69.761l24.493-79.709l24.492,79.709h70.688l60.437-198.936L316.275,227.49L316.275,227.49z"/>
<path d="M851.497,10c4.227,0,7.689,0.148,10.848,0.87l0.167,0.038l0.169,0.033c10.457,2.016,19.665,5.735,27.371,11.056
	c9.792,6.756,17.247,16.04,20.994,26.145c2.716,7.32,3.728,16.119,3.008,26.147c-0.743,10.275-4.604,20.073-10.871,27.592
	c-5.631,6.758-13.425,11.797-21.675,17.132l-0.254,0.164l-0.489,0.316l-0.449,0.371c-2.755,2.276-4.32,5.597-4.295,9.111
	c0.029,3.964,2.111,7.894,5.713,10.781l0.273,0.219l0.288,0.2c5.762,3.99,12.207,4.214,16.913,4.377
	c0.731,0.025,1.454,0.05,2.162,0.091l0.286,0.017h0.287c15.804,0.008,39.248,0.009,59.255,0.009l28.804-0.001v53.813H885.611
	c-6.056,0-12.318,0-17.279-0.922c-7.496-1.392-18.067-4.63-25.858-12.156c-8.918-8.61-43.255-42.478-43.601-42.818l-17.022-16.791
	v23.91v48.776h-62.385V10.03c9.432,0,24.665,0.001,41.909,0.001c28.026,0,61.363-0.002,83.687-0.012
	c0.396,0.002,0.791,0.004,1.188,0.004c0.893,0,1.787-0.006,2.682-0.011C849.785,10.006,850.641,10,851.497,10 M782.9,95.289h10
	h44.687c7.687,0,15.039-3.99,19.188-10.412l0.158-0.245l0.144-0.254c3.404-6.012,3.96-13.558,1.525-20.702l-0.099-0.289
	l-0.116-0.282c-3.494-8.512-12.513-14.231-22.441-14.231L792.9,48.874l-10,0v10v26.415V95.289 M851.497,0
	c-1.752,0-3.504,0.022-5.248,0.022c-0.386,0-0.771-0.001-1.157-0.004c-22.322,0.01-55.677,0.012-83.717,0.012
	c-28.747,0-51.909-0.002-51.909-0.002V208.48h82.385v-58.776c0,0,34.617,34.146,43.677,42.893
	c8.445,8.158,19.846,12.727,30.979,14.794c5.865,1.09,12.734,1.09,19.104,1.09c7.309,0,114.391,0,114.391,0v-73.813
	c0,0-0.209,0-0.609,0c-3.255,0-19.17,0.001-38.194,0.001c-20.005,0-43.448-0.001-59.25-0.009c-4.663-0.27-9.936,0.081-13.96-2.706
	c-1.174-0.941-2.943-3.026-1.305-4.38c8.648-5.592,17.511-11.286,24.182-19.292c7.789-9.344,12.291-21.226,13.162-33.272
	c0.731-10.186-0.021-20.685-3.606-30.347c-4.671-12.598-13.684-23.303-24.69-30.897c-9.313-6.43-20.094-10.511-31.157-12.644
	C860.28,0.141,855.887,0,851.497,0L851.497,0z M792.9,85.289V58.874c0,0,30.301-0.001,43.045-0.001c5.33,0,11.067,2.857,13.19,8.029
	c1.373,4.028,1.371,8.782-0.762,12.549c-2.317,3.588-6.53,5.838-10.787,5.838C824.18,85.289,792.9,85.289,792.9,85.289L792.9,85.289
	z"/>
<path d="M624.529,10.001l57.962,188.45h-54.479l-7.094-23.057l-2.172-7.06h-7.386h-70.761h-7.389l-2.17,7.063l-7.084,23.053h-56.902
	l56.447-188.45H624.529 M544.467,131.694H558h35.931h13.54l-3.982-12.941l-17.982-58.431l-9.566-31.085l-9.551,31.09l-17.948,58.431
	L544.467,131.694 M631.916,0.001H516.06l-62.438,208.45h77.725l9.254-30.116h70.761l9.266,30.116h75.402L631.916,0.001
	L631.916,0.001z M558,121.694l17.948-58.431l17.982,58.431H558L558,121.694z"/>
<path d="M193.728,0.025l0.015,10h0.043h0.009c83.264,0,238.444,0.003,279.197,0.003l-0.053,47.876l-80.137,0.097l-9.988,0.012v9.988
	V198.48h-54.013V67.659v-9.993l-9.993-0.007c0,0-16.303-0.012-36.582-0.012c-18.142,0-43.228,0.01-59.705,0.058l-0.078,0
	l-0.077,0.001c-4.6,0.084-8.527,2.732-10.249,6.91c-2.144,5.203-0.105,10.62,2.859,13.674c5.051,5.214,10.521,11.229,15.811,17.046
	c3.309,3.638,6.729,7.399,9.944,10.848c4.487,4.813,8.116,10.885,10.493,17.559c2.781,7.812,3.838,16.89,3.056,26.253
	c-0.577,6.908-2.843,14.205-6.552,21.101c-7.72,14.348-22.9,24.774-38.672,26.561c-4.734,0.536-14.936,0.821-20.48,0.821H10v-53.812
	c28.382,0.004,110.258,0.015,155.054,0.015c9.173,0,12.225-5.687,13.116-8.146c1.819-5.042,0.495-9.844-3.936-14.274
	c-0.094-0.094-0.188-0.185-0.275-0.277c-4.185-5.004-8.664-9.7-12.996-14.242c-3.234-3.392-6.29-6.595-9.221-9.906
	c-5.667-6.397-9.153-13.823-11.658-24.829c-1.918-8.431-1.834-16.669,0.242-23.823c4.132-14.228,14.221-26.287,26.99-32.257
	c9.927-4.646,18.565-6.904,26.411-6.904L193.728,0.025 M193.728,0.025c-10.679,0-21.062,3.36-30.649,7.846
	c-15.704,7.343-27.545,21.962-32.355,38.526c-2.715,9.355-2.539,19.382-0.39,28.829c2.413,10.604,6.092,20.401,13.923,29.242
	c7.144,8.067,15.115,15.653,22.084,23.995c1.113,1.332,3.171,2.604,2.422,4.68c-0.534,1.474-2.389,1.539-3.709,1.539
	C110.262,134.682,0,134.666,0,134.666v73.813c0,0,173.244,0,188.579,0c5.407,0,16.218-0.275,21.604-0.884
	c19.231-2.179,37.094-14.548,46.354-31.76c4.164-7.741,6.981-16.267,7.711-25.006c0.853-10.212-0.136-20.71-3.601-30.44
	c-2.765-7.761-7.006-15.023-12.599-21.023c-8.243-8.842-17.497-19.372-25.888-28.033c-1.052-1.084-1.517-3.593,0.392-3.628
	c15.914-0.046,39.721-0.058,59.676-0.058c20.275,0,36.574,0.012,36.574,0.012V208.48h74.013V68.001l90.114-0.109l0.074-67.863
	c0,0-192.805-0.004-289.208-0.004C193.772,0.025,193.751,0.025,193.728,0.025L193.728,0.025z"/>
</svg>
